<svg id="Capa_1" data-name="Capa 1" xmlns="http://www.w3.org/2000/svg" viewBox="0 0 922.09 970.78">
  <defs>
    <style>
      .cls-1 {
        fill: #87b62a;
      }

      .cls-2 {
        fill: #1d542a;
      }
    </style>
  </defs>
  <title>logo</title>
  <g>
    <path class="cls-1" d="M391.77,129.92c-110.13,0-220.25.16-330.38-.16-38.67-.11-41.89-4.29-38.58-43,0.19-2.22.58-4.42,0.71-6.63,3.71-64,3.71-64.08,70.21-64.09,206.9,0,413.82-.82,620.71.48,74.81,0.47,143.22,20,190,85.41,26.22,36.67,37.37,78,37.47,122.35,0.35,150.17.74,300.35,0,450.52C941.45,777.73,870.86,853,768,857.16c-77.74,3.16-155.79,3.07-233.54.21-64.53-2.38-109.22-45.6-153.17-86.88C335.11,727.12,289.62,683,244.35,638.71c-59.42-58.16-62.84-129.6-10.64-194.25a845.62,845.62,0,0,1,77-83.05c59.5-56.29,129.59-59.31,191.36-4.85,35.81,31.58,68.27,67,102.15,100.72,3.12,3.11,7.84,6.72,8.05,10.33,2.32,39.51-38.69,46.95-55.55,72.87-10.87,16.7-25.52,3.56-36.11-6.93-27.64-27.42-56.25-54-82.35-82.8-20.83-23-38.93-21.62-58.65-.51-19,20.31-38.08,40.5-56.78,61-15,16.45-17.08,32.55.86,49.24,54.52,50.72,108.6,101.93,162.87,152.93,26.4,24.81,57.55,36.56,94,36.06,51.16-.7,102.35.52,153.5-0.55,71-1.5,98.74-30,98.84-100.1q0.31-203.57,0-407.14c-0.14-73.55-36.54-110.9-110.79-111.52C612,129.28,501.9,130,391.77,129.92Z" transform="translate(-21.83 -15.82)"/>
    <path class="cls-2" d="M562.21,986.13c-106.8,0-213.63-1.59-320.4.41C115.68,988.91,18.94,900.76,23,768.14c4.34-143.38.65-287,1-430.52,0.24-109.54,64-178.82,173.85-190.2,74.36-7.7,148.88-5.71,223.27-2.19,55,2.59,99.38,31,138.44,67C615.06,263.52,669.64,315.9,723.66,368.8c56.22,55,61,128.61,11.37,189.21a1048.63,1048.63,0,0,1-86.12,92.92c-45,43-116.19,48.5-166.2,12.87C435.37,630.07,399.35,583.86,357.52,544c-1.59-1.51-3.83-3.48-3.89-5.29-1.16-38.7,36.86-48.33,54.88-72.9,10.75-14.65,23.33-7.17,33.84,3.36,29.1,29.11,59.12,57.36,87.15,87.46,20,21.48,36.47,20.57,55.27-.74,19.84-22.5,41.38-43.49,61.4-65.85,10.56-11.8,15-25.55.89-38.23-61.19-55-114.79-118-179.3-169.58-22.76-18.18-47.61-26.13-77.1-25.31-55.58,1.54-111.25-.17-166.86.76-63.54,1.06-89.55,27.28-89.68,89.76q-0.43,208.6.05,417.19c0.21,76.68,34.12,110.35,113.94,110.61,208,0.7,416.08.28,624.12,0.31,12.24,0,24.51.73,36.7,0,23.63-1.45,33.54,7.9,34.29,32.73,2.34,77.91,3.16,77.87-74,77.85Q715.74,986.11,562.21,986.13Z" transform="translate(-21.83 -15.82)"/>
  </g>
</svg>
